<svg width="106" height="43" viewBox="0 0 106 43" fill="none" xmlns="http://www.w3.org/2000/svg">
<path d="M14.0181 30.684C13.7141 31.564 13.4221 32.38 13.1421 33.132C12.8701 33.876 12.6021 34.584 12.3381 35.256C12.0741 35.928 11.8101 36.572 11.5461 37.188C11.2901 37.796 11.0261 38.4 10.7541 39H9.66209C9.39009 38.4 9.12209 37.796 8.85809 37.188C8.60209 36.572 8.33809 35.928 8.06609 35.256C7.80209 34.584 7.53009 33.876 7.25009 33.132C6.97009 32.38 6.68209 31.564 6.38609 30.684H7.67009C8.10209 31.948 8.52609 33.164 8.94209 34.332C9.35809 35.5 9.78609 36.596 10.2261 37.62C10.6661 36.604 11.0941 35.512 11.5101 34.344C11.9261 33.168 12.3461 31.948 12.7701 30.684H14.0181ZM28.9131 30.684H30.0771V39H28.9131V30.684ZM52.7038 34.836C52.7038 35.556 52.5918 36.184 52.3678 36.72C52.1438 37.248 51.8278 37.688 51.4198 38.04C51.0118 38.384 50.5238 38.644 49.9558 38.82C49.3878 38.988 48.7638 39.072 48.0838 39.072C47.7478 39.072 47.3758 39.056 46.9678 39.024C46.5678 39 46.2038 38.948 45.8758 38.868V30.804C46.2038 30.724 46.5678 30.672 46.9678 30.648C47.3758 30.616 47.7478 30.6 48.0838 30.6C48.7638 30.6 49.3878 30.688 49.9558 30.864C50.5238 31.032 51.0118 31.292 51.4198 31.644C51.8278 31.988 52.1438 32.428 52.3678 32.964C52.5918 33.492 52.7038 34.116 52.7038 34.836ZM48.1798 38.052C49.2838 38.052 50.1078 37.772 50.6518 37.212C51.1958 36.644 51.4678 35.852 51.4678 34.836C51.4678 33.82 51.1958 33.032 50.6518 32.472C50.1078 31.904 49.2838 31.62 48.1798 31.62C47.8518 31.62 47.5958 31.624 47.4118 31.632C47.2358 31.64 47.1118 31.648 47.0398 31.656V38.016C47.1118 38.024 47.2358 38.032 47.4118 38.04C47.5958 38.048 47.8518 38.052 48.1798 38.052ZM68.1704 39V30.684H73.2464V31.68H69.3344V34.152H72.8144V35.124H69.3344V38.004H73.5464V39H68.1704ZM88.0901 34.836C88.0901 34.124 88.1941 33.496 88.4021 32.952C88.6181 32.408 88.9061 31.956 89.2661 31.596C89.6341 31.228 90.0581 30.952 90.5381 30.768C91.0261 30.584 91.5421 30.492 92.0861 30.492C92.6221 30.492 93.1261 30.584 93.5981 30.768C94.0781 30.952 94.4981 31.228 94.8581 31.596C95.2181 31.956 95.5021 32.408 95.7101 32.952C95.9261 33.496 96.0341 34.124 96.0341 34.836C96.0341 35.548 95.9261 36.176 95.7101 36.72C95.5021 37.264 95.2181 37.72 94.8581 38.088C94.4981 38.448 94.0781 38.72 93.5981 38.904C93.1261 39.088 92.6221 39.18 92.0861 39.18C91.5421 39.18 91.0261 39.088 90.5381 38.904C90.0581 38.72 89.6341 38.448 89.2661 38.088C88.9061 37.72 88.6181 37.264 88.4021 36.72C88.1941 36.176 88.0901 35.548 88.0901 34.836ZM89.3141 34.836C89.3141 35.34 89.3781 35.8 89.5061 36.216C89.6341 36.624 89.8141 36.972 90.0461 37.26C90.2861 37.548 90.5741 37.772 90.9101 37.932C91.2541 38.084 91.6381 38.16 92.0621 38.16C92.4861 38.16 92.8661 38.084 93.2021 37.932C93.5381 37.772 93.8221 37.548 94.0541 37.26C94.2941 36.972 94.4781 36.624 94.6061 36.216C94.7341 35.8 94.7981 35.34 94.7981 34.836C94.7981 34.332 94.7341 33.876 94.6061 33.468C94.4781 33.052 94.2941 32.7 94.0541 32.412C93.8221 32.124 93.5381 31.904 93.2021 31.752C92.8661 31.592 92.4861 31.512 92.0621 31.512C91.6381 31.512 91.2541 31.592 90.9101 31.752C90.5741 31.904 90.2861 32.124 90.0461 32.412C89.8141 32.7 89.6341 33.052 89.5061 33.468C89.3781 33.876 89.3141 34.332 89.3141 34.836Z" fill="white"/>
<path d="M1.6 7.14H4.72V21H1.6V7.14ZM17.2281 21C16.3348 19.4133 15.3681 17.8467 14.3281 16.3C13.2881 14.7533 12.1815 13.2933 11.0081 11.92V21H7.92813V7.14H10.4681C10.9081 7.58 11.3948 8.12 11.9281 8.76C12.4615 9.4 13.0015 10.0867 13.5481 10.82C14.1081 11.54 14.6615 12.2933 15.2081 13.08C15.7548 13.8533 16.2681 14.6 16.7481 15.32V7.14H19.8481V21H17.2281ZM26.1653 18.46C26.312 18.4733 26.4786 18.4867 26.6653 18.5C26.8653 18.5 27.0986 18.5 27.3653 18.5C28.9253 18.5 30.0786 18.1067 30.8253 17.32C31.5853 16.5333 31.9653 15.4467 31.9653 14.06C31.9653 12.6067 31.6053 11.5067 30.8853 10.76C30.1653 10.0133 29.0253 9.64 27.4653 9.64C27.252 9.64 27.032 9.64667 26.8053 9.66C26.5786 9.66 26.3653 9.67333 26.1653 9.7V18.46ZM35.1853 14.06C35.1853 15.26 34.9986 16.3067 34.6253 17.2C34.252 18.0933 33.7186 18.8333 33.0253 19.42C32.3453 20.0067 31.512 20.4467 30.5253 20.74C29.5386 21.0333 28.432 21.18 27.2053 21.18C26.6453 21.18 25.992 21.1533 25.2453 21.1C24.4986 21.06 23.7653 20.9667 23.0453 20.82V7.32C23.7653 7.18667 24.512 7.1 25.2853 7.06C26.072 7.00667 26.7453 6.98 27.3053 6.98C28.492 6.98 29.5653 7.11333 30.5253 7.38C31.4986 7.64667 32.332 8.06667 33.0253 8.64C33.7186 9.21333 34.252 9.94667 34.6253 10.84C34.9986 11.7333 35.1853 12.8067 35.1853 14.06ZM41.8514 6.98C43.9314 6.98 45.5247 7.35333 46.6314 8.1C47.7381 8.83333 48.2914 9.98 48.2914 11.54C48.2914 12.5133 48.0647 13.3067 47.6114 13.92C47.1714 14.52 46.5314 14.9933 45.6914 15.34C45.9714 15.6867 46.2647 16.0867 46.5714 16.54C46.8781 16.98 47.1781 17.4467 47.4714 17.94C47.7781 18.42 48.0714 18.9267 48.3514 19.46C48.6314 19.98 48.8914 20.4933 49.1314 21H45.6314C45.3781 20.5467 45.1181 20.0867 44.8514 19.62C44.5981 19.1533 44.3314 18.7 44.0514 18.26C43.7847 17.82 43.5181 17.4067 43.2514 17.02C42.9847 16.62 42.7181 16.26 42.4514 15.94H40.9114V21H37.7914V7.34C38.4714 7.20667 39.1714 7.11333 39.8914 7.06C40.6247 7.00667 41.2781 6.98 41.8514 6.98ZM42.0314 9.64C41.8047 9.64 41.5981 9.64667 41.4114 9.66C41.2381 9.67333 41.0714 9.68667 40.9114 9.7V13.46H41.7914C42.9647 13.46 43.8047 13.3133 44.3114 13.02C44.8181 12.7267 45.0714 12.2267 45.0714 11.52C45.0714 10.84 44.8114 10.36 44.2914 10.08C43.7847 9.78667 43.0314 9.64 42.0314 9.64ZM51.1313 21V7.14H60.4913V9.76H54.2513V12.48H59.7913V15.04H54.2513V18.38H60.9513V21H51.1313ZM72.5402 21C72.3935 20.52 72.2268 20.0267 72.0402 19.52C71.8668 19.0133 71.6935 18.5067 71.5202 18H66.1202C65.9468 18.5067 65.7668 19.0133 65.5802 19.52C65.4068 20.0267 65.2468 20.52 65.1002 21H61.8602C62.3802 19.5067 62.8735 18.1267 63.3402 16.86C63.8068 15.5933 64.2602 14.4 64.7002 13.28C65.1535 12.16 65.5935 11.1 66.0202 10.1C66.4602 9.08667 66.9135 8.1 67.3802 7.14H70.3602C70.8135 8.1 71.2602 9.08667 71.7002 10.1C72.1402 11.1 72.5802 12.16 73.0202 13.28C73.4735 14.4 73.9335 15.5933 74.4002 16.86C74.8668 18.1267 75.3602 19.5067 75.8802 21H72.5402ZM68.8002 10.28C68.7335 10.48 68.6335 10.7533 68.5002 11.1C68.3668 11.4467 68.2135 11.8467 68.0402 12.3C67.8668 12.7533 67.6735 13.2533 67.4602 13.8C67.2602 14.3467 67.0535 14.92 66.8402 15.52H70.7802C70.5668 14.92 70.3602 14.3467 70.1602 13.8C69.9602 13.2533 69.7668 12.7533 69.5802 12.3C69.4068 11.8467 69.2535 11.4467 69.1202 11.1C68.9868 10.7533 68.8802 10.48 68.8002 10.28ZM81.3542 7.14C81.5942 7.58 81.8676 8.12667 82.1742 8.78C82.4942 9.42 82.8209 10.12 83.1542 10.88C83.5009 11.6267 83.8409 12.3933 84.1742 13.18C84.5076 13.9667 84.8209 14.7067 85.1142 15.4C85.4076 14.7067 85.7209 13.9667 86.0542 13.18C86.3876 12.3933 86.7209 11.6267 87.0542 10.88C87.4009 10.12 87.7276 9.42 88.0342 8.78C88.3542 8.12667 88.6342 7.58 88.8742 7.14H91.7142C91.8476 8.06 91.9676 9.09333 92.0742 10.24C92.1942 11.3733 92.2942 12.56 92.3742 13.8C92.4676 15.0267 92.5476 16.26 92.6142 17.5C92.6942 18.74 92.7609 19.9067 92.8142 21H89.7742C89.7342 19.6533 89.6809 18.1867 89.6142 16.6C89.5476 15.0133 89.4476 13.4133 89.3142 11.8C89.0742 12.36 88.8076 12.98 88.5142 13.66C88.2209 14.34 87.9276 15.02 87.6342 15.7C87.3542 16.38 87.0809 17.0333 86.8142 17.66C86.5476 18.2733 86.3209 18.8 86.1342 19.24H83.9542C83.7676 18.8 83.5409 18.2733 83.2742 17.66C83.0076 17.0333 82.7276 16.38 82.4342 15.7C82.1542 15.02 81.8676 14.34 81.5742 13.66C81.2809 12.98 81.0142 12.36 80.7742 11.8C80.6409 13.4133 80.5409 15.0133 80.4742 16.6C80.4076 18.1867 80.3542 19.6533 80.3142 21H77.2742C77.3276 19.9067 77.3876 18.74 77.4542 17.5C77.5342 16.26 77.6142 15.0267 77.6942 13.8C77.7876 12.56 77.8876 11.3733 77.9942 10.24C78.1142 9.09333 78.2409 8.06 78.3742 7.14H81.3542ZM99.4034 18.62C99.8434 18.62 100.203 18.5867 100.483 18.52C100.777 18.44 101.01 18.34 101.183 18.22C101.357 18.0867 101.477 17.9333 101.543 17.76C101.61 17.5867 101.643 17.3933 101.643 17.18C101.643 16.7267 101.43 16.3533 101.003 16.06C100.577 15.7533 99.8434 15.4267 98.8034 15.08C98.3501 14.92 97.8968 14.74 97.4434 14.54C96.9901 14.3267 96.5834 14.0667 96.2234 13.76C95.8634 13.44 95.5701 13.06 95.3434 12.62C95.1168 12.1667 95.0034 11.62 95.0034 10.98C95.0034 10.34 95.1234 9.76667 95.3634 9.26C95.6034 8.74 95.9434 8.3 96.3834 7.94C96.8234 7.58 97.3568 7.30667 97.9834 7.12C98.6101 6.92 99.3168 6.82 100.103 6.82C101.037 6.82 101.843 6.92 102.523 7.12C103.203 7.32 103.763 7.54 104.203 7.78L103.303 10.24C102.917 10.04 102.483 9.86667 102.003 9.72C101.537 9.56 100.97 9.48 100.303 9.48C99.5568 9.48 99.0168 9.58667 98.6834 9.8C98.3634 10 98.2034 10.3133 98.2034 10.74C98.2034 10.9933 98.2634 11.2067 98.3834 11.38C98.5034 11.5533 98.6701 11.7133 98.8834 11.86C99.1101 11.9933 99.3634 12.12 99.6434 12.24C99.9368 12.3467 100.257 12.46 100.603 12.58C101.323 12.8467 101.95 13.1133 102.483 13.38C103.017 13.6333 103.457 13.9333 103.803 14.28C104.163 14.6267 104.43 15.0333 104.603 15.5C104.777 15.9667 104.863 16.5333 104.863 17.2C104.863 18.4933 104.41 19.5 103.503 20.22C102.597 20.9267 101.23 21.28 99.4034 21.28C98.7901 21.28 98.2368 21.24 97.7434 21.16C97.2501 21.0933 96.8101 21.0067 96.4234 20.9C96.0501 20.7933 95.7234 20.68 95.4434 20.56C95.1768 20.44 94.9501 20.3267 94.7634 20.22L95.6434 17.74C96.0568 17.9667 96.5634 18.1733 97.1634 18.36C97.7768 18.5333 98.5234 18.62 99.4034 18.62Z" fill="white"/>
</svg>
